<svg width="40" height="40" viewBox="0 0 40 40" fill="none" xmlns="http://www.w3.org/2000/svg">
<g clip-path="url(#clip0)">
<path d="M12.4063 32.0625C27.2938 32.0625 35.4344 19.7281 35.4344 9.03437C35.4344 8.68437 35.4344 8.33437 35.4125 7.9875C36.9964 6.84135 38.3636 5.42233 39.45 3.79687C37.9735 4.45177 36.4071 4.88155 34.8031 5.07187C36.492 4.05942 37.7558 2.46807 38.3594 0.593747C36.7703 1.53703 35.0318 2.2018 33.2188 2.55937C31.9986 1.26197 30.3848 0.402879 28.6272 0.115057C26.8696 -0.172766 25.0661 0.126724 23.4959 0.96718C21.9256 1.80764 20.6762 3.1422 19.9408 4.76434C19.2055 6.38648 19.0253 8.20575 19.4281 9.94062C16.2102 9.7794 13.0621 8.94324 10.1883 7.4864C7.31442 6.02957 4.7791 3.98464 2.74688 1.48437C1.71082 3.26567 1.39263 5.37487 1.8571 7.38253C2.32156 9.39019 3.53376 11.1453 5.24688 12.2906C3.96771 12.2474 2.71738 11.8992 1.6 11.275C1.6 11.3094 1.6 11.3437 1.6 11.3781C1.59978 13.2447 2.24447 15.054 3.42496 16.4999C4.60545 17.9457 6.24924 18.9393 8.07813 19.3125C6.88592 19.6373 5.63511 19.6843 4.42188 19.45C4.93842 21.0591 5.94516 22.4665 7.30118 23.4751C8.65721 24.4837 10.2947 25.0431 11.9844 25.075C9.11561 27.3216 5.57502 28.5389 1.93125 28.5312C1.28585 28.5316 0.640991 28.494 0 28.4187C3.70084 30.7959 8.00771 32.0576 12.4063 32.0531" fill="black"/>
</g>
<defs>
<clipPath id="clip0">
<rect width="40" height="40" fill="white"/>
</clipPath>
</defs>
</svg>
